<svg version="1.1" id="Layer_1" xmlns="http://www.w3.org/2000/svg" x="0" y="0" viewBox="0 0 71 71" xml:space="preserve"><style>.st0{fill:#c7c7c7}</style><path class="st0" d="M35.5 71C15.9 71 0 55.1 0 35.5S15.9 0 35.5 0 71 15.9 71 35.5 55.1 71 35.5 71zm0-68C17.6 3 3 17.6 3 35.5S17.6 68 35.5 68 68 53.4 68 35.5 53.4 3 35.5 3z"/><path d="M7.5 37c-.9 0-1.5-.7-1.5-1.5C6 19.2 19.2 6 35.5 6c.8 0 1.5.6 1.5 1.5S36.3 9 35.5 9C20.9 9 9 20.9 9 35.5c0 .8-.7 1.5-1.5 1.5zm28 28c-.8 0-1.5-.7-1.5-1.5s.7-1.5 1.5-1.5C50.1 62 62 50.1 62 35.5c0-.8.7-1.5 1.5-1.5s1.5.7 1.5 1.5C65 51.8 51.8 65 35.5 65z" fill="#fff"/><path class="st0" d="M35.5 37c-.8 0-1.5-.7-1.5-1.5V15.9c0-.8.7-1.5 1.5-1.5s1.5.6 1.5 1.5v19.6c0 .8-.7 1.5-1.5 1.5z"/><path d="M35.5 65C19.2 65 6 51.8 6 35.5c0-.8.6-1.5 1.5-1.5s1.5.7 1.5 1.5C9 50.1 20.9 62 35.5 62c.8 0 1.5.7 1.5 1.5s-.7 1.5-1.5 1.5zm28-28c-.8 0-1.5-.7-1.5-1.5C62 20.9 50.1 9 35.5 9c-.8 0-1.5-.7-1.5-1.5S34.7 6 35.5 6C51.8 6 65 19.2 65 35.5c0 .8-.6 1.5-1.5 1.5zm-28 0c-.8 0-1.5-.7-1.5-1.5V22.4c0-.8.7-1.5 1.5-1.5s1.5.7 1.5 1.5v13.1c0 .8-.7 1.5-1.5 1.5z" fill="#8d81ac"/></svg>