<svg version="1.1" id="Isolation_Mode" xmlns="http://www.w3.org/2000/svg" x="0" y="0" viewBox="0 0 89.8 80" xml:space="preserve"><style>.st0{fill:#c7c7c7}.st1{fill:#8d81ac}</style><path class="st0" d="M44.9 80c-9.8 0-19.6-4.2-26.4-12.3C6.3 53.1 8.2 31.3 22.8 19.1c7.1-5.9 16-8.7 25.2-7.9 9.2.8 17.5 5.1 23.4 12.2 5.9 7.1 8.7 16 7.9 25.2-.8 9.2-5.1 17.5-12.2 23.4-6.5 5.3-14.3 8-22.2 8zM23.7 20.2l1 1.1c-13.3 11.2-15 31-3.9 44.3 11.2 13.3 31 15 44.3 3.9 6.4-5.4 10.4-13 11.1-21.4.7-8.4-1.8-16.5-7.3-23-5.4-6.4-13-10.4-21.4-11.1-8.4-.7-16.5 1.8-23 7.2l-.8-1zM44.9 5.5c-.8 0-1.5-.7-1.5-1.5V1.5c0-.8.7-1.5 1.5-1.5s1.5.7 1.5 1.5V4c0 .8-.7 1.5-1.5 1.5zM59.2 8c-.2 0-.3 0-.5-.1-.8-.3-1.2-1.1-.9-1.9l.8-2.3c.3-.8 1.1-1.2 1.9-.9.8.3 1.2 1.1.9 1.9L60.6 7c-.3.6-.8 1-1.4 1zm12.5 7.2c-.3 0-.7-.1-1-.4-.6-.5-.7-1.5-.2-2.1l1.6-1.9c.5-.6 1.5-.7 2.1-.2.6.5.7 1.5.2 2.1l-1.6 1.9c-.3.5-.7.6-1.1.6zm9.2 11.1c-.5 0-1-.3-1.3-.8-.4-.7-.2-1.6.6-2l2.1-1.2c.7-.4 1.6-.2 2 .6.4.7.2 1.6-.6 2l-2.1 1.2c-.2.2-.4.2-.7.2zm4.9 13.6c-.7 0-1.4-.5-1.5-1.2-.1-.8.4-1.6 1.2-1.7l2.4-.4c.8-.1 1.6.4 1.7 1.2.1.8-.4 1.6-1.2 1.7l-2.4.4h-.2zm2.4 14.9h-.3l-2.4-.4c-.8-.1-1.4-.9-1.2-1.7.1-.8.9-1.4 1.7-1.2l2.4.4c.8.1 1.4.9 1.2 1.7 0 .7-.7 1.2-1.4 1.2zm-5.3 14.4c-.3 0-.5-.1-.8-.2L80 67.8c-.7-.4-1-1.3-.5-2.1.4-.7 1.3-1 2.1-.5l2.1 1.2c.7.4 1 1.3.5 2.1-.3.4-.8.7-1.3.7z"/><path class="st1" d="M6.6 68.6c-.5 0-1-.3-1.3-.8-.4-.7-.2-1.6.6-2L8 64.6c.7-.4 1.6-.1 2 .6s.2 1.6-.6 2l-2.2 1.2c-.1.1-.4.2-.6.2zM1.5 54.1c-.7 0-1.4-.5-1.5-1.3-.1-.8.4-1.6 1.2-1.7l2.4-.4c.8-.1 1.6.4 1.7 1.2s-.3 1.7-1.1 1.8l-2.4.4h-.3zm2.6-14.8h-.3l-2.4-.5C.6 38.6.1 37.9.2 37c.2-.8.9-1.3 1.8-1.2l2.4.5c.8.2 1.3.9 1.2 1.8-.1.7-.8 1.2-1.5 1.2zm5.1-13.5c-.3 0-.5-.1-.8-.2l-2.1-1.3c-.7-.4-.9-1.3-.5-2.1.4-.7 1.3-.9 2.1-.5L10 23c.7.4.9 1.3.5 2.1-.3.4-.8.7-1.3.7zm9.5-11c-.4 0-.9-.2-1.2-.6L16 12.3c-.5-.6-.4-1.6.2-2.1.6-.5 1.6-.4 2.1.2l1.6 1.9c.5.6.4 1.6-.2 2.1-.3.3-.7.4-1 .4z"/><path class="st0" d="M31.3 7.8c-.6 0-1.2-.4-1.4-1l-.8-2.3c-.3-.8.1-1.6.9-1.9.8-.3 1.6.1 1.9.9l.8 2.3c.3.8-.1 1.6-.9 1.9-.2 0-.3.1-.5.1z"/><path class="st1" d="M32.8 32.6c-.4 0-.9-.2-1.1-.5l-3.9-4.7c-.5-.6-.5-1.6.2-2.1.6-.5 1.6-.5 2.1.2l3.9 4.7c.5.6.5 1.6-.2 2.1-.3.1-.7.3-1 .3z"/><path d="M46.5 54.8c-5.1.9-10-2.5-10.9-7.7-.9-5.1 2.5-10 7.7-10.9 5.1-.9 10 2.5 10.9 7.7.9 5.1-2.5 10-7.7 10.9z" fill="#fff"/><path class="st0" d="M44.9 56.4c-2.2 0-4.4-.7-6.3-2-2.4-1.7-4-4.2-4.5-7.1-.5-2.9.1-5.8 1.8-8.2 1.7-2.4 4.2-4 7.1-4.5 5.9-1 11.6 2.9 12.7 8.9.5 2.9-.1 5.8-1.8 8.2-1.7 2.4-4.2 4-7.1 4.5-.6.2-1.3.2-1.9.2zm0-18.9c-.5 0-.9 0-1.4.1-2.1.4-3.9 1.5-5.1 3.3-1.2 1.7-1.7 3.8-1.3 5.9.4 2.1 1.5 3.9 3.3 5.1 1.7 1.2 3.8 1.7 5.9 1.3 2.1-.4 3.9-1.5 5.1-3.3 1.2-1.7 1.7-3.8 1.3-5.9-.6-3.7-4-6.5-7.8-6.5z"/></svg>