<?xml version="1.0" encoding="utf-8"?>
<!-- Generator: Adobe Illustrator 24.1.3, SVG Export Plug-In . SVG Version: 6.00 Build 0)  -->
<svg version="1.1" id="Isolation_Mode" xmlns="http://www.w3.org/2000/svg" xmlns:xlink="http://www.w3.org/1999/xlink" x="0px"
	 y="0px" viewBox="0 0 89.8 80" style="enable-background:new 0 0 89.8 80;" xml:space="preserve">
<style type="text/css">
	.st0{fill:#C7C7C7;}
	.st1{fill:#8D81AC;}
	.st2{fill:#FFFFFF;}
</style>
<g>
	<g>
		<path class="st0" d="M44.9,80c-9.8,0-19.6-4.2-26.4-12.3C6.3,53.1,8.2,31.3,22.8,19.1c7.1-5.9,16-8.7,25.2-7.9
			c9.2,0.8,17.5,5.1,23.4,12.2c5.9,7.1,8.7,16,7.9,25.2c-0.8,9.2-5.1,17.5-12.2,23.4C60.6,77.3,52.8,80,44.9,80z M23.7,20.2l1,1.1
			c-13.3,11.2-15,31-3.9,44.3c11.2,13.3,31,15,44.3,3.9c6.4-5.4,10.4-13,11.1-21.4c0.7-8.4-1.8-16.5-7.3-23
			c-5.4-6.4-13-10.4-21.4-11.1c-8.4-0.7-16.5,1.8-23,7.2L23.7,20.2z"/>
	</g>
	<g>
		<path class="st0" d="M44.9,5.5c-0.8,0-1.5-0.7-1.5-1.5V1.5c0-0.8,0.7-1.5,1.5-1.5s1.5,0.7,1.5,1.5V4C46.4,4.8,45.7,5.5,44.9,5.5z"
			/>
	</g>
	<g>
		<path class="st0" d="M59.2,8c-0.2,0-0.3,0-0.5-0.1c-0.8-0.3-1.2-1.1-0.9-1.9l0.8-2.3c0.3-0.8,1.1-1.2,1.9-0.9
			c0.8,0.3,1.2,1.1,0.9,1.9L60.6,7C60.3,7.6,59.8,8,59.2,8z"/>
	</g>
	<g>
		<path class="st0" d="M71.7,15.2c-0.3,0-0.7-0.1-1-0.4c-0.6-0.5-0.7-1.5-0.2-2.1l1.6-1.9c0.5-0.6,1.5-0.7,2.1-0.2
			c0.6,0.5,0.7,1.5,0.2,2.1l-1.6,1.9C72.5,15.1,72.1,15.2,71.7,15.2z"/>
	</g>
	<g>
		<path class="st0" d="M80.9,26.3c-0.5,0-1-0.3-1.3-0.8c-0.4-0.7-0.2-1.6,0.6-2l2.1-1.2c0.7-0.4,1.6-0.2,2,0.6
			c0.4,0.7,0.2,1.6-0.6,2l-2.1,1.2C81.4,26.3,81.2,26.3,80.9,26.3z"/>
	</g>
	<g>
		<path class="st0" d="M85.8,39.9c-0.7,0-1.4-0.5-1.5-1.2c-0.1-0.8,0.4-1.6,1.2-1.7l2.4-0.4c0.8-0.1,1.6,0.4,1.7,1.2
			c0.1,0.8-0.4,1.6-1.2,1.7l-2.4,0.4C86,39.9,85.9,39.9,85.8,39.9z"/>
	</g>
	<g>
		<path class="st0" d="M88.2,54.8c-0.1,0-0.2,0-0.3,0l-2.4-0.4c-0.8-0.1-1.4-0.9-1.2-1.7c0.1-0.8,0.9-1.4,1.7-1.2l2.4,0.4
			c0.8,0.1,1.4,0.9,1.2,1.7C89.6,54.3,88.9,54.8,88.2,54.8z"/>
	</g>
	<g>
		<path class="st0" d="M82.9,69.2c-0.3,0-0.5-0.1-0.8-0.2L80,67.8c-0.7-0.4-1-1.3-0.5-2.1c0.4-0.7,1.3-1,2.1-0.5l2.1,1.2
			c0.7,0.4,1,1.3,0.5,2.1C83.9,68.9,83.4,69.2,82.9,69.2z"/>
	</g>
	<g>
		<path class="st1" d="M6.6,68.6c-0.5,0-1-0.3-1.3-0.8c-0.4-0.7-0.2-1.6,0.6-2L8,64.6c0.7-0.4,1.6-0.1,2,0.6s0.2,1.6-0.6,2l-2.2,1.2
			C7.1,68.5,6.8,68.6,6.6,68.6z"/>
	</g>
	<g>
		<path class="st1" d="M1.5,54.1c-0.7,0-1.4-0.5-1.5-1.3c-0.1-0.8,0.4-1.6,1.2-1.7l2.4-0.4c0.8-0.1,1.6,0.4,1.7,1.2S5,53.6,4.2,53.7
			l-2.4,0.4C1.7,54.1,1.6,54.1,1.5,54.1z"/>
	</g>
	<g>
		<path class="st1" d="M4.1,39.3c-0.1,0-0.2,0-0.3,0l-2.4-0.5c-0.8-0.2-1.3-0.9-1.2-1.8c0.2-0.8,0.9-1.3,1.8-1.2l2.4,0.5
			c0.8,0.2,1.3,0.9,1.2,1.8C5.5,38.8,4.8,39.3,4.1,39.3z"/>
	</g>
	<g>
		<path class="st1" d="M9.2,25.8c-0.3,0-0.5-0.1-0.8-0.2l-2.1-1.3c-0.7-0.4-0.9-1.3-0.5-2.1c0.4-0.7,1.3-0.9,2.1-0.5L10,23
			c0.7,0.4,0.9,1.3,0.5,2.1C10.2,25.5,9.7,25.8,9.2,25.8z"/>
	</g>
	<g>
		<path class="st1" d="M18.7,14.8c-0.4,0-0.9-0.2-1.2-0.6L16,12.3c-0.5-0.6-0.4-1.6,0.2-2.1c0.6-0.5,1.6-0.4,2.1,0.2l1.6,1.9
			c0.5,0.6,0.4,1.6-0.2,2.1C19.4,14.7,19,14.8,18.7,14.8z"/>
	</g>
	<g>
		<path class="st0" d="M31.3,7.8c-0.6,0-1.2-0.4-1.4-1l-0.8-2.3c-0.3-0.8,0.1-1.6,0.9-1.9c0.8-0.3,1.6,0.1,1.9,0.9l0.8,2.3
			c0.3,0.8-0.1,1.6-0.9,1.9C31.6,7.7,31.5,7.8,31.3,7.8z"/>
	</g>
	<g>
		<path class="st1" d="M32.8,32.6c-0.4,0-0.9-0.2-1.1-0.5l-3.9-4.7c-0.5-0.6-0.5-1.6,0.2-2.1c0.6-0.5,1.6-0.5,2.1,0.2l3.9,4.7
			c0.5,0.6,0.5,1.6-0.2,2.1C33.5,32.4,33.1,32.6,32.8,32.6z"/>
	</g>
	<g>
		<path class="st2" d="M46.5,54.8c-5.1,0.9-10-2.5-10.9-7.7c-0.9-5.1,2.5-10,7.7-10.9c5.1-0.9,10,2.5,10.9,7.7
			C55.1,49,51.7,53.9,46.5,54.8z"/>
		<path class="st0" d="M44.9,56.4c-2.2,0-4.4-0.7-6.3-2c-2.4-1.7-4-4.2-4.5-7.1c-0.5-2.9,0.1-5.8,1.8-8.2c1.7-2.4,4.2-4,7.1-4.5
			c5.9-1,11.6,2.9,12.7,8.9c0.5,2.9-0.1,5.8-1.8,8.2c-1.7,2.4-4.2,4-7.1,4.5C46.2,56.4,45.5,56.4,44.9,56.4z M44.9,37.5
			c-0.5,0-0.9,0-1.4,0.1c-2.1,0.4-3.9,1.5-5.1,3.3c-1.2,1.7-1.7,3.8-1.3,5.9c0.4,2.1,1.5,3.9,3.3,5.1c1.7,1.2,3.8,1.7,5.9,1.3
			c0,0,0,0,0,0c2.1-0.4,3.9-1.5,5.1-3.3c1.2-1.7,1.7-3.8,1.3-5.9C52.1,40.3,48.7,37.5,44.9,37.5z"/>
	</g>
</g>
</svg>
