<?xml version="1.0" encoding="utf-8"?>
<!-- Generator: Adobe Illustrator 24.1.3, SVG Export Plug-In . SVG Version: 6.00 Build 0)  -->
<svg version="1.1" id="Layer_1" xmlns="http://www.w3.org/2000/svg" xmlns:xlink="http://www.w3.org/1999/xlink" x="0px" y="0px"
	 viewBox="0 0 71 71" style="enable-background:new 0 0 71 71;" xml:space="preserve">
<style type="text/css">
	.st0{fill:#C7C7C7;}
	.st1{fill:#FFFFFF;}
	.st2{fill:#8D81AC;}
</style>
<g>
	<g>
		<path class="st0" d="M35.5,71C15.9,71,0,55.1,0,35.5S15.9,0,35.5,0S71,15.9,71,35.5S55.1,71,35.5,71z M35.5,3
			C17.6,3,3,17.6,3,35.5S17.6,68,35.5,68S68,53.4,68,35.5S53.4,3,35.5,3z"/>
	</g>
	<g>
		<path class="st1" d="M7.5,37C6.6,37,6,36.3,6,35.5C6,19.2,19.2,6,35.5,6C36.3,6,37,6.6,37,7.5S36.3,9,35.5,9C20.9,9,9,20.9,9,35.5
			C9,36.3,8.3,37,7.5,37z"/>
	</g>
	<g>
		<path class="st1" d="M35.5,65c-0.8,0-1.5-0.7-1.5-1.5s0.7-1.5,1.5-1.5C50.1,62,62,50.1,62,35.5c0-0.8,0.7-1.5,1.5-1.5
			s1.5,0.7,1.5,1.5C65,51.8,51.8,65,35.5,65z"/>
	</g>
	<g>
		<path class="st0" d="M35.5,37c-0.8,0-1.5-0.7-1.5-1.5V15.9c0-0.8,0.7-1.5,1.5-1.5S37,15,37,15.9v19.6C37,36.3,36.3,37,35.5,37z"/>
	</g>
	<g>
		<path class="st2" d="M35.5,65C19.2,65,6,51.8,6,35.5C6,34.7,6.6,34,7.5,34S9,34.7,9,35.5C9,50.1,20.9,62,35.5,62
			c0.8,0,1.5,0.7,1.5,1.5S36.3,65,35.5,65z"/>
	</g>
	<g>
		<path class="st2" d="M63.5,37c-0.8,0-1.5-0.7-1.5-1.5C62,20.9,50.1,9,35.5,9C34.7,9,34,8.3,34,7.5S34.7,6,35.5,6
			C51.8,6,65,19.2,65,35.5C65,36.3,64.4,37,63.5,37z"/>
	</g>
	<g>
		<path class="st2" d="M35.5,37c-0.8,0-1.5-0.7-1.5-1.5V22.4c0-0.8,0.7-1.5,1.5-1.5s1.5,0.7,1.5,1.5v13.1C37,36.3,36.3,37,35.5,37z"
			/>
	</g>
</g>
</svg>
