<?xml version="1.0" encoding="utf-8"?>
<!-- Generator: Adobe Illustrator 24.1.3, SVG Export Plug-In . SVG Version: 6.00 Build 0)  -->
<svg version="1.1" id="Layer_1" xmlns="http://www.w3.org/2000/svg" xmlns:xlink="http://www.w3.org/1999/xlink" x="0px" y="0px"
	 viewBox="0 0 110.9 64" style="enable-background:new 0 0 110.9 64;" xml:space="preserve">
<style type="text/css">
	.st0{fill:#F9F9F9;}
	.st1{fill:#C7C7C7;}
	.st2{fill:#8D81AC;}
	.st3{fill:none;stroke:#8D81AC;stroke-width:3;stroke-linecap:round;stroke-linejoin:round;stroke-miterlimit:10;}
</style>
<rect x="1.5" y="1.5" class="st0" width="72.5" height="10"/>
<path class="st1" d="M10.1,6.6c0,0.9-0.7,1.6-1.6,1.6c-0.9,0-1.6-0.7-1.6-1.6c0-0.9,0.7-1.6,1.6-1.6C9.3,4.9,10.1,5.7,10.1,6.6z"/>
<path class="st2" d="M15.1,6.6c0,0.9-0.7,1.6-1.6,1.6c-0.9,0-1.6-0.7-1.6-1.6c0-0.9,0.7-1.6,1.6-1.6C14.3,4.9,15.1,5.7,15.1,6.6z"/>
<path class="st1" d="M20.1,6.6c0,0.9-0.7,1.6-1.6,1.6c-0.9,0-1.6-0.7-1.6-1.6c0-0.9,0.7-1.6,1.6-1.6C19.3,4.9,20.1,5.7,20.1,6.6z"/>
<g>
	<path class="st1" d="M74.5,0h-73C0.7,0,0,0.7,0,1.5v61C0,63.3,0.7,64,1.5,64h73c0.8,0,1.5-0.7,1.5-1.5v-61C76,0.7,75.3,0,74.5,0z
		 M73,3v7H3V3H73z M3,61V13h70v48H3z"/>
	<path class="st1" d="M32.5,18h-24C7.7,18,7,18.7,7,19.5v16C7,36.3,7.7,37,8.5,37h24c0.8,0,1.5-0.7,1.5-1.5v-16
		C34,18.7,33.3,18,32.5,18z M31,34H10V21h21V34z"/>
	<path class="st1" d="M66.5,18h-24c-0.8,0-1.5,0.7-1.5,1.5v16c0,0.8,0.7,1.5,1.5,1.5h24c0.8,0,1.5-0.7,1.5-1.5v-16
		C68,18.7,67.3,18,66.5,18z M65,34H44V21h21V34z"/>
</g>
<line class="st3" x1="9" y1="44.5" x2="32" y2="44.5"/>
<line class="st3" x1="9" y1="53.5" x2="32" y2="53.5"/>
<line class="st3" x1="43" y1="44.5" x2="66" y2="44.5"/>
<line class="st3" x1="43" y1="53.5" x2="66" y2="53.5"/>
<g>
	<path class="st0" d="M109.6,54.1l-9.8-9.8c-0.1-0.1-0.3-0.3-0.5-0.4c5.2-8.3,4.2-19.4-3-26.6c-4.1-4.1-9.5-6.3-15.2-6.3
		c-5.7,0-11.1,2.2-15.2,6.3c-4.1,4.1-6.3,9.5-6.3,15.2c0,5.7,2.2,11.1,6.3,15.2C70,51.8,75.4,54,81.1,54c4.4,0,8.5-1.3,12-3.7
		c0.1,0.1,0.2,0.2,0.3,0.3l9.8,9.8c0.8,0.9,2,1.3,3.2,1.3c1.2,0,2.3-0.5,3.2-1.3c0.9-0.8,1.3-2,1.3-3.2
		C110.9,56.1,110.4,54.9,109.6,54.1z M81.1,45c-3.3,0-6.5-1.3-8.8-3.7c-4.9-4.9-4.9-12.8,0-17.7c2.4-2.4,5.5-3.7,8.8-3.7
		c3.3,0,6.5,1.3,8.8,3.7c4.9,4.9,4.9,12.8,0,17.7C87.6,43.7,84.5,45,81.1,45z"/>
	<g>
		<path class="st2" d="M81.1,51c-4.9,0-9.6-1.9-13.1-5.4c-7.2-7.2-7.2-18.9,0-26.2c3.5-3.5,8.1-5.4,13.1-5.4c4.9,0,9.6,1.9,13.1,5.4
			c7.2,7.2,7.2,18.9,0,26.2C90.7,49.1,86.1,51,81.1,51z M81.1,17c-4.1,0-8,1.6-11,4.5c-6,6-6,15.9,0,21.9c2.9,2.9,6.8,4.5,11,4.5
			c4.1,0,8-1.6,11-4.5c6-6,6-15.9,0-21.9C89.2,18.6,85.3,17,81.1,17z"/>
		<path class="st1" d="M105.4,57.8c-0.4,0-0.8-0.1-1.1-0.4l-7.8-7.8C96,49,96,48,96.6,47.4c0.6-0.6,1.5-0.6,2.1,0l7.8,7.8
			c0.6,0.6,0.6,1.5,0,2.1C106.2,57.6,105.8,57.8,105.4,57.8z"/>
	</g>
</g>
</svg>
